<svg width="21" height="18" viewBox="0 0 21 18" fill="none" xmlns="http://www.w3.org/2000/svg">
<path d="M19.4602 0.478028C19.2727 0.290557 19.0184 0.185242 18.7532 0.185242C18.488 0.185242 18.2337 0.290557 18.0462 0.478028L2.41921 16.107C2.3237 16.1993 2.24752 16.3096 2.19511 16.4316C2.1427 16.5536 2.11511 16.6848 2.11396 16.8176C2.1128 16.9504 2.13811 17.0821 2.18839 17.205C2.23867 17.3279 2.31292 17.4395 2.40681 17.5334C2.50071 17.6273 2.61236 17.7016 2.73526 17.7519C2.85815 17.8021 2.98983 17.8274 3.12261 17.8263C3.25539 17.8251 3.38661 17.7975 3.50861 17.7451C3.63062 17.6927 3.74096 17.6165 3.83321 17.521L19.4592 1.89203C19.6467 1.7045 19.752 1.45019 19.752 1.18503C19.752 0.919864 19.6467 0.665556 19.4592 0.478028H19.4602ZM4.04721 12.498L6.60721 9.93803C6.53421 9.63064 6.49631 9.31596 6.49421 9.00003C6.49421 6.62103 8.48421 4.69103 10.9392 4.69103C11.2252 4.69103 11.5032 4.72303 11.7742 4.77303L12.9772 3.57103C12.3036 3.45943 11.622 3.40258 10.9392 3.40103C4.37921 3.40003 0.939209 8.23103 0.939209 9.00003C0.939209 9.42303 1.99621 11.09 4.04721 12.497V12.498ZM17.8342 5.50503L15.2722 8.06503C15.3412 8.36703 15.3832 8.67803 15.3832 9.00003C15.3832 11.379 13.3942 13.307 10.9392 13.307C10.6552 13.307 10.3792 13.275 10.1102 13.226L8.90621 14.429C9.54821 14.533 10.2222 14.599 10.9392 14.599C17.4992 14.599 20.9392 9.76603 20.9392 9.00003C20.9392 8.57603 19.8832 6.91003 17.8342 5.50503Z" fill="#DFDFDF"/>
</svg>
