<svg width="49" height="48" viewBox="0 0 49 48" fill="none" xmlns="http://www.w3.org/2000/svg">
<path d="M48.8028 24.0784C48.8028 10.7783 38.0874 -0.00299072 24.871 -0.00299072C11.6487 7.54837e-07 0.933228 10.7783 0.933228 24.0814C0.933228 36.0982 9.68629 46.0598 21.1257 47.8666V31.0396H15.053V24.0814H21.1317V18.7715C21.1317 12.7377 24.7065 9.40521 30.1719 9.40521C32.7925 9.40521 35.5297 9.87487 35.5297 9.87487V15.798H32.5113C29.5407 15.798 28.6134 17.6557 28.6134 19.5613V24.0784H35.2485L34.1895 31.0366H28.6104V47.8636C40.0498 46.0568 48.8028 36.0952 48.8028 24.0784Z" fill="#C4C4C4"/>
</svg>
