<svg width="49" height="48" viewBox="0 0 49 48" fill="none" xmlns="http://www.w3.org/2000/svg">
<circle cx="24.871" cy="23.9318" r="23.9318" fill="#C4C4C4"/>
<path d="M34.8063 12.7609L32.9808 14.286L25.208 20.4624L17.4353 14.225L15.6098 12.6999C15.1797 12.3195 14.6547 12.0824 14.0998 12.0179C13.545 11.9534 12.9846 12.0644 12.4881 12.3371C11.9917 12.6098 11.5809 13.0323 11.3068 13.5522C11.0328 14.0722 10.9073 14.6666 10.9461 15.262V32.9373C10.9461 33.4874 11.1505 34.0149 11.5142 34.4039C11.878 34.7928 12.3713 35.0114 12.8857 35.0114H17.4353V23.238L25.208 29.4754L32.9808 23.238V35.0114H37.5303C38.0447 35.0114 38.5381 34.7928 38.9018 34.4039C39.2656 34.0149 39.4699 33.4874 39.4699 32.9373V15.262C39.4967 14.6718 39.3626 14.0859 39.0838 13.5757C38.805 13.0654 38.3937 12.6527 37.8997 12.3878C37.4057 12.1229 36.8503 12.0171 36.3012 12.0834C35.752 12.1496 35.2327 12.385 34.8063 12.7609Z" fill="white"/>
</svg>
