<svg width="48" height="48" viewBox="0 0 48 48" fill="none" xmlns="http://www.w3.org/2000/svg">
<circle cx="23.9391" cy="23.9318" r="23.9318" fill="#C4C4C4"/>
<path d="M28.3113 23.9318C28.3113 24.7966 28.0549 25.6419 27.5744 26.3609C27.094 27.0799 26.4112 27.6403 25.6123 27.9712C24.8134 28.3021 23.9343 28.3887 23.0862 28.22C22.238 28.0513 21.459 27.6349 20.8475 27.0234C20.2361 26.412 19.8197 25.6329 19.651 24.7848C19.4823 23.9367 19.5689 23.0576 19.8998 22.2587C20.2307 21.4598 20.7911 20.7769 21.5101 20.2965C22.2291 19.8161 23.0744 19.5597 23.9391 19.5597C25.0976 19.5633 26.2076 20.0251 27.0267 20.8442C27.8459 21.6634 28.3077 22.7734 28.3113 23.9318ZM37.6021 17.9201V29.9435C37.6021 31.9728 36.796 33.9189 35.3611 35.3538C33.9262 36.7887 31.9801 37.5948 29.9508 37.5948H17.9274C15.8982 37.5948 13.952 36.7887 12.5171 35.3538C11.0822 33.9189 10.2761 31.9728 10.2761 29.9435V17.9201C10.2761 15.8909 11.0822 13.9447 12.5171 12.5098C13.952 11.0749 15.8982 10.2688 17.9274 10.2688H29.9508C31.9801 10.2688 33.9262 11.0749 35.3611 12.5098C36.796 13.9447 37.6021 15.8909 37.6021 17.9201ZM30.4974 23.9318C30.4974 22.6347 30.1127 21.3668 29.3921 20.2883C28.6715 19.2098 27.6472 18.3692 26.4488 17.8728C25.2505 17.3764 23.9318 17.2466 22.6597 17.4996C21.3875 17.7527 20.2189 18.3773 19.3017 19.2945C18.3846 20.2116 17.7599 21.3802 17.5069 22.6524C17.2538 23.9246 17.3837 25.2432 17.8801 26.4416C18.3765 27.6399 19.2171 28.6642 20.2956 29.3848C21.3741 30.1054 22.642 30.4901 23.9391 30.4901C25.6785 30.4901 27.3466 29.7991 28.5765 28.5692C29.8064 27.3393 30.4974 25.6712 30.4974 23.9318ZM32.6834 16.8271C32.6834 16.5028 32.5873 16.1858 32.4071 15.9162C32.227 15.6466 31.9709 15.4364 31.6713 15.3123C31.3717 15.1882 31.0421 15.1557 30.724 15.219C30.406 15.2823 30.1138 15.4384 29.8845 15.6677C29.6552 15.897 29.4991 16.1892 29.4358 16.5072C29.3726 16.8252 29.405 17.1549 29.5291 17.4545C29.6532 17.7541 29.8634 18.0102 30.133 18.1903C30.4026 18.3705 30.7196 18.4666 31.0439 18.4666C31.4787 18.4666 31.8957 18.2939 32.2032 17.9864C32.5107 17.6789 32.6834 17.2619 32.6834 16.8271Z" fill="white"/>
</svg>
