<svg version="1.2" xmlns="http://www.w3.org/2000/svg" viewBox="0 0 512 512" width="512" height="512">
	<title>New Project</title>
	<style>
		.s0 { fill: #000000 } 
	</style>
	<path class="s0" d="m274.1 139c-9.9-1.5-19.3 5.3-20.8 15.2-0.8 4.9 0.4 9.7 3.3 13.6 2.8 4 7.1 6.5 11.9 7.3q1.4 0.2 2.8 0.2c8.8 0 16.6-6.4 18-15.4 1.6-10-5.2-19.3-15.2-20.9q0 0 0 0zm2.9 19c-0.5 3.1-3.4 5.3-6.6 4.8-1.5-0.3-2.9-1.1-3.8-2.3-0.9-1.3-1.3-2.8-1-4.3 0.4-2.9 2.9-5 5.7-5q0.5 0 0.9 0.1c3.2 0.5 5.3 3.5 4.8 6.7z"/>
	<path class="s0" d="m294.3 201.6c-0.8 4.8 0.4 9.6 3.3 13.5 2.8 4 7.1 6.6 11.9 7.3q1.4 0.3 2.8 0.3c8.8 0 16.6-6.5 18.1-15.5 0.7-4.8-0.5-9.6-3.3-13.6-2.9-3.9-7.1-6.5-12-7.3-9.9-1.5-19.3 5.3-20.8 15.3zm22.7-0.6c0.9 1.2 1.3 2.8 1.1 4.3-0.5 3.1-3.5 5.3-6.7 4.8-1.5-0.2-2.9-1-3.8-2.3-0.9-1.3-1.3-2.8-1-4.3 0.4-2.9 2.9-4.9 5.7-4.9q0.5 0 0.9 0.1c1.6 0.2 2.9 1 3.8 2.3z"/>
	<path class="s0" d="m337.4 267.5c2.8 3.9 7.1 6.5 11.9 7.3q1.4 0.2 2.9 0.2c3.8 0 7.5-1.2 10.7-3.5 3.9-2.9 6.5-7.1 7.3-12 0.7-4.8-0.5-9.6-3.3-13.5-2.9-4-7.2-6.6-12-7.3-9.9-1.6-19.3 5.2-20.8 15.2-0.8 4.8 0.4 9.6 3.3 13.6zm9-11.7c0.4-2.8 2.9-4.9 5.7-4.9q0.5 0 0.9 0.1c1.5 0.2 2.9 1.1 3.8 2.3 0.9 1.3 1.3 2.8 1.1 4.3-0.3 1.5-1.1 2.9-2.4 3.8-1.2 0.9-2.7 1.3-4.3 1.1-1.5-0.3-2.9-1.1-3.8-2.4-0.9-1.2-1.3-2.8-1-4.3z"/>
	<path class="s0" d="m411.8 133.8c-5-6.9-12.4-11.4-20.8-12.7l-35-5.5c-3.4-0.5-6.6 1.8-7.1 5.2-0.5 3.4 1.8 6.6 5.2 7.1l35 5.5c5.1 0.8 9.6 3.6 12.7 7.8 3.1 4.2 4.3 9.3 3.5 14.5l-20.1 128.6c-1.5 9.6-9.8 16.5-19.3 16.5q-1.5 0-3-0.3l-69.9-10.9v-43.7c0-17.6-14.3-31.9-31.9-31.9h-36.1l13.2-84.5c0.8-5.1 3.6-9.6 7.8-12.7 4.3-3.1 9.4-4.4 14.5-3.5l44.7 7c3.4 0.5 6.6-1.8 7.1-5.2 0.5-3.4-1.8-6.6-5.2-7.1l-44.6-7.1c-8.4-1.3-16.9 0.8-23.8 5.8-6.9 5-11.4 12.5-12.8 20.9l-13.5 86.4h-81.5c-17.6 0-31.9 14.3-31.9 31.9v130.2c0 17.6 14.3 32 31.9 32h130.2c17.6 0 31.9-14.4 31.9-32v-73.9l68 10.6q2.5 0.4 4.9 0.4c15.5 0 29.1-11.3 31.6-27l20.1-128.6c1.3-8.4-0.7-16.9-5.8-23.8zm-131.2 242.3c0 10.8-8.8 19.5-19.5 19.5h-130.2c-10.7 0-19.5-8.7-19.5-19.5v-130.2c0-10.7 8.8-19.5 19.5-19.5h86.8 0.1 43.3c10.7 0 19.5 8.8 19.5 19.5 0 0 0 130.2 0 130.2z"/>
	<path class="s0" d="m148.4 249.8c-10.1 0-18.3 8.2-18.3 18.2 0 10.1 8.2 18.3 18.3 18.3 10 0 18.2-8.2 18.2-18.3 0-10-8.2-18.2-18.2-18.2zm0 24c-3.2 0-5.8-2.6-5.8-5.8 0-3.2 2.6-5.8 5.8-5.8 3.2 0 5.8 2.6 5.8 5.8 0 3.2-2.6 5.8-5.8 5.8z"/>
	<path class="s0" d="m196.2 290.2c-10 0-18.2 8.2-18.2 18.2 0 10.1 8.2 18.3 18.2 18.3 10.1 0 18.3-8.2 18.3-18.3 0-10-8.2-18.2-18.3-18.2zm0 24.1c-3.2 0-5.8-2.6-5.8-5.9 0-3.2 2.6-5.8 5.8-5.8 3.2 0 5.8 2.6 5.8 5.8 0 3.3-2.6 5.9-5.8 5.9z"/>
	<path class="s0" d="m243.6 250c-10 0-18.2 8.2-18.2 18.2 0 10.1 8.2 18.3 18.2 18.3 10.1 0 18.3-8.2 18.3-18.3 0-10-8.2-18.2-18.3-18.2zm0 24c-3.2 0-5.8-2.6-5.8-5.8 0-3.2 2.6-5.8 5.8-5.8 3.2 0 5.8 2.6 5.8 5.8 0 3.2-2.6 5.8-5.8 5.8z"/>
	<path class="s0" d="m148.4 335.5c-10.1 0-18.3 8.2-18.3 18.3 0 10.1 8.2 18.3 18.3 18.3 10 0 18.2-8.2 18.2-18.3 0-10.1-8.2-18.3-18.2-18.3zm0 24.1c-3.2 0-5.8-2.6-5.8-5.8 0-3.2 2.6-5.8 5.8-5.8 3.2 0 5.8 2.6 5.8 5.8 0 3.2-2.6 5.8-5.8 5.8z"/>
	<path class="s0" d="m243.6 335.7c-10 0-18.2 8.2-18.2 18.3 0 10.1 8.2 18.3 18.2 18.3 10.1 0 18.3-8.2 18.3-18.3 0-10.1-8.2-18.3-18.3-18.3zm0 24.1c-3.2 0-5.8-2.6-5.8-5.8 0-3.2 2.6-5.8 5.8-5.8 3.2 0 5.8 2.6 5.8 5.8 0 3.2-2.6 5.8-5.8 5.8z"/>
	<path class="s0" d="m329.7 124.1h0.1q0.6 0.1 1.1 0.1c3 0 5.6-2.2 6.1-5.2 0.6-3.4-1.7-6.6-5.1-7.2h-0.1c-3.4-0.6-6.6 1.7-7.2 5.1-0.5 3.4 1.8 6.6 5.1 7.2z"/>
</svg>