<svg version="1.2" xmlns="http://www.w3.org/2000/svg" viewBox="0 0 512 512" width="512" height="512">
	<title>New Project</title>
	<style>
		.s0 { fill: #000000 } 
	</style>
	<path class="s0" d="m193.1 315.4c14.8 20.9 29.6 39.6 39.4 51.7 1.5 1.7 2.8 3.3 4.1 4.9h-29.6c-3.3 0-6 2.7-6 6 0 3.3 2.7 6 6 6h96c3.3 0 6-2.7 6-6 0-3.3-2.7-6-6-6h-29.6c1.3-1.6 2.6-3.2 4.1-4.9 9.8-12 24.6-30.8 39.4-51.7 14.7-20.3 28-41.6 39.6-63.9 12.3-24 18.5-44 18.5-59.3 0-31.9-12.6-62.5-35.1-85-1.5-1.6-3.8-2.2-5.9-1.6-2.1 0.5-3.7 2.2-4.3 4.3-0.5 2 0.1 4.3 1.7 5.8 20.3 20.3 31.6 47.8 31.6 76.5 0 13.4-5.8 31.5-17.2 53.9-11.4 21.7-24.3 42.5-38.7 62.4-14.6 20.6-29.2 39.1-38.9 51-3.3 3.9-6.2 7.4-8.6 10.4-1.2 1.3-2.8 2.1-4.6 2.1-1.7 0-3.4-0.8-4.6-2.1-2.4-3-5.3-6.5-8.6-10.4-9.7-11.9-24.3-30.4-38.9-51-14.4-19.9-27.3-40.7-38.7-62.4-11.4-22.4-17.2-40.5-17.2-53.9 0-43.5 26-82.7 66-99.7 26.9-11.3 57.2-11.3 84.1 0 1.9 0.8 4.2 0.6 5.9-0.7 1.7-1.3 2.6-3.4 2.4-5.6-0.3-2.1-1.7-3.9-3.6-4.7-61.2-25.8-131.6 2.8-157.4 63.9-6.2 14.8-9.4 30.7-9.4 46.8 0 15.3 6.2 35.3 18.5 59.4 11.6 22.2 24.9 43.5 39.6 63.8z"/>
	<path class="s0" d="m255 138c3.3 0 6-2.7 6-6 0-3.3-2.7-6-6-6-28.6 0-53.3 20.2-58.8 48.3-5.6 28.1 9.4 56.2 35.8 67.1 26.5 11 57 1.7 72.9-22.1 15.9-23.8 12.8-55.5-7.5-75.7-1.5-1.6-3.7-2.2-5.8-1.6-2.1 0.5-3.7 2.1-4.3 4.2-0.5 2.1 0.1 4.4 1.6 5.9 16.2 16.2 18.7 41.5 6 60.6-12.7 19-37.1 26.4-58.3 17.7-21.1-8.8-33.1-31.3-28.7-53.8 4.5-22.4 24.2-38.6 47.1-38.6z"/>
	<path class="s0" d="m432.7 399.4l-36.9-66c-3.3-5.8-9.5-9.4-16.3-9.4h-42.7c-3.4 0-6 2.7-6 6 0 3.3 2.6 6 6 6h42.7c2.4 0 4.7 1.2 5.9 3.3l36.9 66c1 1.7 0.9 3.8-0.1 5.5-1.2 2.1-3.4 3.3-5.8 3.2h-322.8c-2.4 0.1-4.6-1.1-5.8-3.2-1-1.7-1.1-3.8-0.1-5.5l36.9-66c1.3-2.1 3.5-3.3 5.9-3.3h42.8c3.3 0 6-2.7 6-6 0-3.3-2.7-6-6-6h-42.8c-6.8 0-13 3.6-16.3 9.4l-36.9 66c-3.1 5.5-3 12.1 0.1 17.5 3.4 5.7 9.6 9.2 16.2 9.1h322.8c6.6 0.1 12.8-3.4 16.2-9.1 3.1-5.4 3.2-12 0.1-17.5z"/>
	<path class="s0" d="m369 354h-24c-1.2 0-2.3 0.4-3.3 1l-18 12c-2.8 1.9-3.5 5.6-1.7 8.3 1.9 2.8 5.6 3.5 8.3 1.7l16.5-11h22.2c3.3 0 6-2.7 6-6 0-3.3-2.7-6-6-6z"/>
	<path class="s0" d="m333 396c0 3.3 2.7 6 6 6h48c3.3 0 6-2.7 6-6 0-3.3-2.7-6-6-6h-48c-3.3 0-6 2.7-6 6z"/>
	<path class="s0" d="m183 378c2.6 0 5-1.7 5.8-4.2 0.7-2.6-0.3-5.3-2.5-6.8l-18-12c-1-0.6-2.1-1-3.3-1h-24c-3.3 0-6 2.7-6 6 0 3.3 2.7 6 6 6h22.2l16.5 11c1 0.7 2.1 1 3.3 1z"/>
	<path class="s0" d="m123 390c-3.3 0-6 2.7-6 6 0 3.3 2.7 6 6 6h48c3.3 0 6-2.7 6-6 0-3.3-2.7-6-6-6z"/>
</svg>