<svg version="1.2" xmlns="http://www.w3.org/2000/svg" viewBox="0 0 512 512" width="512" height="512">
	<title>New Project</title>
	<style>
		.s0 { fill: none;stroke: #000000;stroke-linecap: round;stroke-linejoin: round;stroke-width: 22.5 } 
	</style>
	<path class="s0" d="m324.8 340.5h78.7v-45c-19.1 0-33.8-15.8-33.8-33.8 0-18 14.7-33.7 33.8-33.7v-45h-78.8"/>
	<path class="s0" d="m291 183h-202.5v45c19.1 0 33.8 15.7 33.8 33.8 0 18-14.7 33.7-33.8 33.7v45h202.5"/>
	<path fill-rule="evenodd" class="s0" d="m324.8 183l-0.1 22.5"/>
	<path fill-rule="evenodd" class="s0" d="m324.8 318l-0.1 22.5"/>
	<path fill-rule="evenodd" class="s0" d="m156 228h112.5"/>
	<path fill-rule="evenodd" class="s0" d="m212.3 273h56.2"/>
	<path fill-rule="evenodd" class="s0" d="m313.5 115.5v22.5"/>
	<path fill-rule="evenodd" class="s0" d="m324.8 239.3l-0.1 44.9"/>
	<path fill-rule="evenodd" class="s0" d="m358.5 138l-11.3 11.3"/>
	<path fill-rule="evenodd" class="s0" d="m268.5 138l11.3 11.3"/>
</svg>